<svg xmlns="http://www.w3.org/2000/svg" viewBox="0 0 64 64" aria-hidden="true">
  <circle cx="32" cy="32" r="30.5" fill="#c9a862" stroke="#0e0f12" stroke-width="3" />
  <circle cx="32" cy="32" r="23" fill="#d8bd7a" opacity="0.16" />

  <path d="M32 17.75c1.35 0.66 2.5 2.14 2.5 3.85-1.62-1.08-3.42-1.64-5.3-1.68 0.6-1.62 1.7-2.63 2.8-3.17z" fill="#0e0f12" />
  <path d="M24.5 24.5c1.4-3.2 5-5.6 8.9-5.6 5.8 0 10.6 4.5 10.6 10.4S39 39.5 32.7 39.5c-3.3 0-6.2-1.6-7.8-4" fill="none" stroke="#0e0f12" stroke-width="2.6" stroke-linecap="round" stroke-linejoin="round" />
  <path d="M27.4 27.8c1.4-2.6 4.3-4.4 7.6-4.4 4.8 0 8.6 3.7 8.6 8.3 0 4.5-3.9 8-8.8 8-2.8 0-5.1-1.3-6.3-3.4" fill="none" stroke="#0e0f12" stroke-width="2.4" stroke-linecap="round" stroke-linejoin="round" />
  <path d="M30.8 30.8c0.95-1.08 2.3-1.76 3.8-1.76 2.5 0 4.6 1.9 4.6 4.2 0 2.3-1.9 4.1-4.3 4.1-1.9 0-3.5-1.1-3.5-2.7 0-1.2 1-2.1 2.2-2.1 1.1 0 1.9 0.8 1.9 1.8 0 0.9-0.6 1.6-1.5 1.8" fill="none" stroke="#0e0f12" stroke-width="2.2" stroke-linecap="round" stroke-linejoin="round" />

  <path d="M18.5 28.5v14.8c0 .92.56 1.74 1.43 2.08l9.9 3.8c.7.27 1.46.27 2.16 0l9.9-3.8c.87-.34 1.43-1.16 1.43-2.08V28.5" fill="none" stroke="#0e0f12" stroke-width="2.5" stroke-linecap="round" stroke-linejoin="round" />
  <path d="M18.5 39.2c4-3.1 8.8-4.7 13.9-4.7s9.9 1.6 13.9 4.7" fill="none" stroke="#0e0f12" stroke-width="2.5" stroke-linecap="round" stroke-linejoin="round" />
</svg>
